<?xml version="1.0" encoding="utf-8"?>
<!-- Generator: Adobe Illustrator 19.0.0, SVG Export Plug-In . SVG Version: 6.00 Build 0)  -->
<svg version="1.1" id="Capa_1" xmlns="http://www.w3.org/2000/svg" xmlns:xlink="http://www.w3.org/1999/xlink" x="0px" y="0px"
	 viewBox="0 0 1280 353.6" style="enable-background:new 0 0 1280 353.6;" xml:space="preserve">
<style type="text/css">
	.letters{fill: rgba(110,110,110,1);}
	.st1{clip-path:url(#XMLID_46_);fill:url(#SVGID_1_);}
	.st2{clip-path:url(#XMLID_47_);fill:url(#XMLID_48_);}
	.st3{clip-path:url(#XMLID_49_);fill:#E62C25;}
	.st4{clip-path:url(#XMLID_50_);fill:url(#XMLID_51_);}
</style>
<path class="letters" d="M384.7,177.3c18.3,9.8,26.8,26.8,34.4,44.1c10.7,24,21.4,47.9,32.2,71.9c4.7,10.7,3.8,13.9-7.9,14.5
	c-15.1,0.9-30.3,0.3-45.7-0.3c-5.7-0.3-9.1-3.8-11.7-9.1c-10.1-22.7-20.5-45.4-30.9-67.8c-5.4-11.4-12.6-21.4-25.9-23.3
	c-10.4-1.6-21.4-1.3-31.8-1.9c-3.8,0-2.8,3.2-2.8,5.4c0,22.1,0,43.8,0,65.9v15.1c0,11.7-2.2,15.5-13.6,16.4
	c-13.2,1.3-26.5,0.6-39.4-0.3c-9.1-0.9-11.7-4.7-11.7-13.9V63.5c0-12.6,4.7-17.3,17.3-17.3c30.3,0,60.5-0.3,91.1,0.3
	c18.6,0.3,36.9,2.5,54.2,9.8c24.9,10.1,39.4,28.1,40.7,55.5c1.6,28.1-12.3,46.7-36.3,59.3c-4.1,2.2-8.2,3.8-12.3,5.7
	C385.3,176.4,385,176.7,384.7,177.3 M294.8,156.2c14.8,0,28.7,0.3,42.6,0c15.8-0.3,29.3-13.9,30.6-30.6c1.3-15.1-8.8-28.1-25.5-30
	c-14.8-1.6-29.6-0.9-44.5-1.3c-0.9,0-3.2,1.9-3.2,3.2C294.8,116.8,294.8,136,294.8,156.2 M5.6,178.6c0-37.8,0-76,0-113.8
	c0-14.5,4.4-18.6,18.9-18.6c31.2,0,62.4-0.3,93.7,0.3c16.7,0.3,33.1,3.2,48.9,9.5c21.4,8.8,35,24.3,40.7,46.4
	c5.4,20.5,5,41-3.8,60.5c-10.4,23-30,34.7-53,41.6c-12.3,3.8-24.6,5.7-37.5,5.7c-12.6-0.3-25.5,0-38.2,0c-4.1,0-5.4,1.3-5.4,5.4
	c0.3,25.9,0,51.7,0,77.3c0,11.4-1.9,14.8-13.2,15.8c-13.2,1.3-26.8,0.6-40-0.3c-8.5-0.6-11.4-5-11.4-13.9
	C5.6,255.5,5.6,217.1,5.6,178.6 M70.3,127.5c0,9.8,0,19.6,0,29.3c0,1.6,2.2,4.1,3.2,4.1c15.1,0,30.6,0,45.7-1.3
	c8.5-0.6,16.4-4.7,21.4-12.6c13.6-20.8,1.9-48.6-22.7-51.7c-14.5-1.9-29.6-0.9-44.5-1.3c-3.2,0-3.2,1.9-3.2,4.4
	C70.3,108.3,70.3,118.1,70.3,127.5"/>
<g>
	<g>
		<defs>
			<path id="XMLID_12_" d="M453.1,177.7c0,94,78.5,170,175.3,170s175.3-76,175.3-170s-78.5-170-175.3-170S453.1,84,453.1,177.7"/>
		</defs>
		<clipPath id="XMLID_46_">
			<use xlink:href="#XMLID_12_"  style="overflow:visible;"/>
		</clipPath>
		
			<linearGradient id="SVGID_1_" gradientUnits="userSpaceOnUse" x1="153.5576" y1="45.9435" x2="156.711" y2="45.9435" gradientTransform="matrix(54.322 94.089 94.089 -54.322 -12121.2402 -11922.6357)">
			<stop  offset="0" style="stop-color:#E83725"/>
			<stop  offset="0.605" style="stop-color:#741112"/>
		</linearGradient>
		<path class="st1" d="M716.1-144L306.2,92.8l234.9,406.8L951,262.8L716.1-144z M720.5,224.3c-2.8,8.5-5.7,17-11.4,24.3
			c-9.8,12-27.4,21.4-44.1,22.7c-2.2,1.3-5,2.2-8.2,2.2c-5,0-8.8-1.9-11.7-5c-15.1-5.4-27.4-16.4-36.6-30c-3.5-3.2-6.6-6.6-9.1-10.4
			c-10.4-14.5-12.6-30.6-12-48.2c0.9-31.2,3.2-67.5,35.9-81c2.8-1.3,5.7-1.6,7.9-0.9c4.1-2.8,8.5-5.7,13.2-8.2
			c2.2-4.7,6.6-8.5,13.9-8.5c3.8,0,6.6,0.9,9.1,2.8c0.9,0.3,1.9,0.6,3.2,0.9c1.6,0.6,2.8,1.3,3.8,2.2c7.3,1.6,13.9,5.7,19.6,10.7
			c1.9,0.9,3.5,1.9,5,2.8c8.2,5.7,14.8,13.9,20.2,22.4c12.9,20.2,17.7,42.9,12.3,66.5C729,201.3,724.3,213,720.5,224.3z"/>
	</g>
</g>
<g id="XMLID_44_">
	<g id="XMLID_45_">
		<defs>
			<path id="XMLID_9_" d="M584.2,14C509.5,32.5,454.3,99,454.3,177.6c0,79,55.2,145.1,129.9,163.6c13.6,3.4,28.1,5,42.9,5
				c6.6,0,13.2-0.6,19.6-1.3c-70-25.4-119.8-90.9-119.8-168.3c0-76.5,48.9-141.4,117.6-167.4c-5.7-0.6-11.4-0.9-17.3-0.9
				C612.3,8.7,598.1,10.6,584.2,14"/>
		</defs>
		<clipPath id="XMLID_47_">
			<use xlink:href="#XMLID_9_"  style="overflow:visible;"/>
		</clipPath>
		
			<linearGradient id="XMLID_48_" gradientUnits="userSpaceOnUse" x1="147.581" y1="44.6662" x2="150.7344" y2="44.6662" gradientTransform="matrix(-68.306 -68.306 -68.306 68.306 13849.0059 7334.2305)">
			<stop  offset="0" style="stop-color:#341413"/>
			<stop  offset="1" style="stop-color:#A71F24"/>
		</linearGradient>
		<path id="XMLID_8_" class="st2" d="M585,436.7L318.8,172.1L585-92.4l266.1,264.5L585,436.7z"/>
	</g>
</g>
<g>
	<g>
		<defs>
			<path id="XMLID_7_" d="M453.1,177.7c0,94,78.5,170,175.3,170s175.3-76,175.3-170s-78.5-170-175.3-170S453.1,84,453.1,177.7"/>
		</defs>
		<clipPath id="XMLID_49_">
			<use xlink:href="#XMLID_7_"  style="overflow:visible;"/>
		</clipPath>
		<path id="XMLID_6_" class="st3" d="M593.4,178.3c0-44.1,28.4-81.7,68.4-96.2c-10.4-3.8-21.8-6-33.7-6
			c-55.2,0-100.3,45.7-100.3,102.2s44.8,102.2,100.3,102.2c11.7,0,23-2.2,33.4-6C621.8,260,593.4,222.4,593.4,178.3"/>
	</g>
</g>
<g>
	<g>
		<defs>
			<path id="XMLID_5_" d="M659.7,81.8c40,15.1,68.1,51.4,68.1,94c0,45.4-32.2,83.9-76.3,96.8c13.9,6.3,29.3,10.1,45.7,10.1
				c57.4,0,104.1-43.8,106.6-99c0-1.9,0-3.5,0-5.4c-0.3-57.1-47.9-103.1-106.9-103.1C683.9,75.2,671.3,77.7,659.7,81.8"/>
		</defs>
		<clipPath id="XMLID_50_">
			<use xlink:href="#XMLID_5_"  style="overflow:visible;"/>
		</clipPath>
		
			<linearGradient id="XMLID_51_" gradientUnits="userSpaceOnUse" x1="153.5869" y1="39.4385" x2="156.7403" y2="39.4385" gradientTransform="matrix(52.844 -30.509 -30.509 -52.844 -6282.519 7005.0688)">
			<stop  offset="0" style="stop-color:#E83725"/>
			<stop  offset="1" style="stop-color:#711112"/>
		</linearGradient>
		<path id="XMLID_4_" class="st4" d="M561.6,127.2l204-117.9l128,221.7l-204,117.9L561.6,127.2z"/>
	</g>
</g>
<path class="letters" d="M1219.4,311.4c-4.7-0.6-7.6-3.8-9.5-8.2c-4.4-12.6-9.5-25.2-14.2-37.8c-1.3-3.8-3.2-5-7.3-5
	c-30.3,0.3-60.9,0.3-91.1,0c-3.8,0-5.7,1.3-6.9,4.7c-4.7,12.9-9.8,25.5-14.2,38.5c-1.9,5.4-5.7,8.8-10.7,9.1
	c-13.9,0.3-27.8,0.9-41.6-0.3c-10.4-0.9-12-4.4-8.2-14.5c13.2-34.1,26.5-67.8,40-101.9c17-43.2,34.1-86.1,50.5-129.3
	c3.5-9.5,9.1-14.2,18.6-14.2c14.5-0.3,29.3,0.3,43.8,0.9c6,0.3,10.1,3.8,12.3,9.5c30.3,77.9,60.9,155.5,91.1,233
	c4.7,12.3,2.5,16.1-10.7,17c-5.7,0.3-11.4,0-17.3,0C1243.7,312.9,1227.3,312.3,1219.4,311.4 M1174.9,211.4l-31.5-89.9
	c-10.7,29.3-21.8,59.6-32.8,89.9H1174.9L1174.9,211.4z M911.3,313.6c-26.2-0.6-51.7-3.8-75.4-15.5c-4.7-2.2-9.1-5.7-13.2-8.8
	c-4.4-3.5-5-8.5-3.5-13.6c3.5-10.1,10.1-18.3,18.6-24.9c4.4-3.2,8.5-2.2,12.9-0.3c11,4.4,21.8,9.1,33.1,12.3
	c13.9,4.1,28.4,4.4,42.6,0.6c13.9-3.8,21.1-12.9,20.5-26.5c-0.3-8.2-4.7-14.5-11.7-18.3c-10.7-5.7-21.8-10.7-32.8-15.5
	c-10.7-4.7-21.8-7.9-32.5-12.6c-21.8-9.8-38.2-24.9-43.8-48.9c-8.5-37.8,8.8-69.4,45.4-84.2C894,48.7,917,47.4,940.6,49
	c14.8,0.9,29.3,3.8,42.9,9.5c18.6,7.9,21.1,15.5,10.4,32.8c-1.3,1.9-2.5,4.1-4.1,6c-6.9,8.8-10.4,9.8-20.8,6
	c-19.6-7.3-40-8.8-60.5-4.1c-11.7,2.5-18.3,11-18.6,21.1c0,7.3,3.8,12.6,9.5,15.8c11.4,6,23,11.4,35,16.4
	c12.3,5.4,24.9,8.8,36.9,14.8c21.8,10.4,37.8,27.1,40.4,52c4.7,42.3-10.1,75.7-58.3,89.2c-5,1.3-10.1,2.8-15.1,3.2
	C929.9,312.3,920.5,312.9,911.3,313.6"/>
</svg>
